<?xml version="1.0"?>
<svg xmlns="http://www.w3.org/2000/svg" id="Layer_1" data-name="Layer 1" viewBox="0 0 512 512" width="512" height="512"><title>Lorry</title><path d="M86.213,430H97v24.1c0,16,13.481,28.9,29.479,28.9h.214a29.057,29.057,0,0,0,27.442-19h5.293c9.851,0,17.572-10.8,17.572-23.944V430H335v10.056C335,453.205,342.721,464,352.572,464h5.293a29.057,29.057,0,0,0,27.441,19h.215c16,0,29.479-12.9,29.479-28.9V430h10.788A27.051,27.051,0,0,0,453,403.014V379.77a6.807,6.807,0,0,0-7-6.77h-3V330.07A44.227,44.227,0,0,0,398.468,286H391V199h12.283A16.9,16.9,0,0,0,420,181.854V143.125A16.887,16.887,0,0,0,403.283,126H391V76.31A47.119,47.119,0,0,0,343.976,29H168.125a47.4,47.4,0,0,0-30.161,10.823l.145-.024A47.128,47.128,0,0,0,121,76.31V126H108.834A16.985,16.985,0,0,0,92,143.125v38.729A17,17,0,0,0,108.834,199H121v87h-7.359C89.112,286,69,305.542,69,330.07V373H66a6.807,6.807,0,0,0-7,6.77v23.244A27.051,27.051,0,0,0,86.213,430Zm40.48,39h-.214C118.2,469,111,462.381,111,454.1V430h31v24.1A15.185,15.185,0,0,1,126.693,469ZM163,440.056A14.3,14.3,0,0,1,159.428,450H156V430h7Zm186,0V430h7v20h-3.4A14.137,14.137,0,0,1,349,440.056ZM401,454.1c0,8.278-7.2,14.9-15.479,14.9h-.215A15.185,15.185,0,0,1,370,454.1V430h31Zm38-51.089A13.036,13.036,0,0,1,425.788,416H86.213A13.036,13.036,0,0,1,73,403.014V387H439ZM300,373H212V312.827c0-8.334,7.247-14.827,15.582-14.827h56.943C292.86,298,300,304.493,300,312.827ZM403.283,140A2.886,2.886,0,0,1,406,143.125v38.729A2.9,2.9,0,0,1,403.283,185H391V140ZM377,133.086c0,.013,0,.026,0,.039s0,.026,0,.039v58.652c0,.013,0,.025,0,.038s0,.026,0,.039V286h-3.71L363.121,119.938l10.444-58.616A32.558,32.558,0,0,1,377,76.31ZM335.835,234.993A44.359,44.359,0,0,0,304.308,222H207.8c-24.522,0-44.8,19.826-44.8,44.35V286H152.825l4.365-72H354.861l4.4,72H349V266.35A44.131,44.131,0,0,0,335.835,234.993ZM349.47,126,354,200H263V126ZM249,200H158.041l4.494-74H249ZM343.976,43c.714,0,1.426-.027,2.136.019.136.009.271-.013.407,0,.683.053,1.364.112,2.041.207.13.019.26.033.39.053.674.1,1.346.218,2.011.362.033.007.065.01.1.017.683.15,1.359.327,2.03.52.138.039.276.077.413.118.65.2,1.3.409,1.932.644.122.045.242.093.363.139.613.234,1.219.482,1.817.752.06.027.121.051.181.078.627.287,1.243.6,1.852.924.134.072.268.143.4.216.595.329,1.182.673,1.757,1.039.036.023.072.124.108.147L350.325,112H161.653L150.094,48.292c.037-.023.073-.086.109-.11.585-.373,1.18-.744,1.784-1.08.124-.068.248-.144.372-.21.621-.334,1.249-.659,1.889-.953l.127-.058c.617-.281,1.243-.539,1.875-.782.119-.045.237-.093.356-.138q.966-.357,1.951-.654c.134-.04.268-.078.4-.116.679-.2,1.361-.377,2.051-.529l.078-.015c.675-.148,1.355-.268,2.039-.373.131-.02.261-.042.392-.061q1.021-.144,2.052-.224c.135-.011.27.04.406.031.714-.047,1.43-.02,2.148-.02ZM108.834,185A3,3,0,0,1,106,181.854V143.125A2.977,2.977,0,0,1,108.834,140H121v45ZM135,192.2c0-.116.018-.231.018-.349s-.018-.232-.018-.348V133.473c0-.116.018-.23.018-.348s-.018-.232-.018-.348V76.31a33.045,33.045,0,0,1,3.406-14.932l10.543,58.661L138.8,286H135ZM83,330.07C83,313.261,96.832,300,113.641,300h56.688c3.866,0,6.671-3.549,6.671-7.415V266.35c0-16.805,14-30.35,30.8-30.35h96.507A30.657,30.657,0,0,1,335,266.35v26.235c0,3.866,2.916,7.415,6.782,7.415h56.686A30.212,30.212,0,0,1,429,330.07V373H314V312.827C314,296.773,300.58,284,284.525,284H227.582C211.527,284,198,296.773,198,312.827V373H83Z"/><path d="M361.509,356h17.714a18.5,18.5,0,1,0,0-37H361.509a18.5,18.5,0,1,0,0,37Zm0-23h17.714a4.5,4.5,0,1,1,0,9H361.509a4.5,4.5,0,1,1,0-9Z"/><path d="M150.606,319H132.9a18.5,18.5,0,1,0,0,37h17.711a18.5,18.5,0,1,0,0-37Zm0,23H132.9a4.5,4.5,0,1,1,0-9h17.711a4.5,4.5,0,1,1,0,9Z"/></svg>
